<?xml version="1.0" encoding="UTF-8"?><svg id="a" xmlns="http://www.w3.org/2000/svg" viewBox="0 0 32 32"><g><circle cx="16" cy="16" r="15.62" style="fill:#f2f2f2;"/><path d="m16,.75c8.41,0,15.25,6.84,15.25,15.25s-6.84,15.25-15.25,15.25S.75,24.41.75,16,7.59.75,16,.75m0-.75C7.16,0,0,7.16,0,16s7.16,16,16,16,16-7.16,16-16S24.84,0,16,0h0Z" style="fill:#666;"/></g><circle cx="16" cy="16" r="12" style="fill:#e6e6e6;"/><circle cx="16" cy="16" r="8" style="fill:#ccc;"/><circle cx="16" cy="16" r="4" style="fill:#b3b3b3;"/><line x1=".5" y1="16" x2="31.5" y2="16" style="fill:none; stroke:#666; stroke-miterlimit:10; stroke-width:.5px;"/><line x1="16" y1=".5" x2="16" y2="31.5" style="fill:none; stroke:#666; stroke-miterlimit:10; stroke-width:.5px;"/><path d="m15,18c.42.27-.53,2.15.2,2.76.19.15.51.24.8.24,2,0,.5-2.5,1-3s.95,1.5,3.5,1.5c2,0,5.5-1.5,5.5-7.5,0-9-6.96-11-10-11-1.87,0-5.22.76-7.52,3.43-.35.4-2.88,3.37-2.48,7.57.41,4.26,3.19,7.5,5.5,7.5,2,0,3.06-1.79,3.5-1.5Z" style="fill:none; stroke:#000; stroke-miterlimit:10;"/><path d="m6,13c0,3.76,3.52,7.66,5.6,7.41.62-.07,2.92-.7,3.4-.41.15.09.25.18.31.26.16.2.15.32.29.49.02.02.2.23.39.25.38.05.62-.67,1-1,.84-.73,2.41.38,3.6.41,2.3.06,5.4-3.88,5.4-7.41,0-5-3.39-12-10-12-6.6,0-10,7-10,12Z" style="fill:none; stroke:#ed1c24; stroke-miterlimit:10;"/></svg>